G75*
%MOIN*%
%OFA0B0*%
%FSLAX24Y24*%
%IPPOS*%
%LPD*%
%AMOC8*
5,1,8,0,0,1.08239X$1,22.5*
%
%ADD10C,0.0000*%
%ADD11C,0.0740*%
%ADD12OC8,0.0520*%
%ADD13R,0.0650X0.0650*%
%ADD14C,0.0650*%
%ADD15C,0.0520*%
%ADD16C,0.0160*%
%ADD17C,0.0320*%
%ADD18C,0.0100*%
%ADD19C,0.0140*%
D10*
X000180Y000180D02*
X000180Y014176D01*
X016050Y014176D01*
X016050Y000180D01*
X000180Y000180D01*
X001080Y001680D02*
X001082Y001729D01*
X001088Y001777D01*
X001098Y001825D01*
X001112Y001872D01*
X001129Y001918D01*
X001150Y001962D01*
X001175Y002004D01*
X001203Y002044D01*
X001235Y002082D01*
X001269Y002117D01*
X001306Y002149D01*
X001345Y002178D01*
X001387Y002204D01*
X001431Y002226D01*
X001476Y002244D01*
X001523Y002259D01*
X001570Y002270D01*
X001619Y002277D01*
X001668Y002280D01*
X001717Y002279D01*
X001765Y002274D01*
X001814Y002265D01*
X001861Y002252D01*
X001907Y002235D01*
X001951Y002215D01*
X001994Y002191D01*
X002035Y002164D01*
X002073Y002133D01*
X002109Y002100D01*
X002141Y002064D01*
X002171Y002025D01*
X002198Y001984D01*
X002221Y001940D01*
X002240Y001895D01*
X002256Y001849D01*
X002268Y001802D01*
X002276Y001753D01*
X002280Y001704D01*
X002280Y001656D01*
X002276Y001607D01*
X002268Y001558D01*
X002256Y001511D01*
X002240Y001465D01*
X002221Y001420D01*
X002198Y001376D01*
X002171Y001335D01*
X002141Y001296D01*
X002109Y001260D01*
X002073Y001227D01*
X002035Y001196D01*
X001994Y001169D01*
X001951Y001145D01*
X001907Y001125D01*
X001861Y001108D01*
X001814Y001095D01*
X001765Y001086D01*
X001717Y001081D01*
X001668Y001080D01*
X001619Y001083D01*
X001570Y001090D01*
X001523Y001101D01*
X001476Y001116D01*
X001431Y001134D01*
X001387Y001156D01*
X001345Y001182D01*
X001306Y001211D01*
X001269Y001243D01*
X001235Y001278D01*
X001203Y001316D01*
X001175Y001356D01*
X001150Y001398D01*
X001129Y001442D01*
X001112Y001488D01*
X001098Y001535D01*
X001088Y001583D01*
X001082Y001631D01*
X001080Y001680D01*
X001080Y012680D02*
X001082Y012729D01*
X001088Y012777D01*
X001098Y012825D01*
X001112Y012872D01*
X001129Y012918D01*
X001150Y012962D01*
X001175Y013004D01*
X001203Y013044D01*
X001235Y013082D01*
X001269Y013117D01*
X001306Y013149D01*
X001345Y013178D01*
X001387Y013204D01*
X001431Y013226D01*
X001476Y013244D01*
X001523Y013259D01*
X001570Y013270D01*
X001619Y013277D01*
X001668Y013280D01*
X001717Y013279D01*
X001765Y013274D01*
X001814Y013265D01*
X001861Y013252D01*
X001907Y013235D01*
X001951Y013215D01*
X001994Y013191D01*
X002035Y013164D01*
X002073Y013133D01*
X002109Y013100D01*
X002141Y013064D01*
X002171Y013025D01*
X002198Y012984D01*
X002221Y012940D01*
X002240Y012895D01*
X002256Y012849D01*
X002268Y012802D01*
X002276Y012753D01*
X002280Y012704D01*
X002280Y012656D01*
X002276Y012607D01*
X002268Y012558D01*
X002256Y012511D01*
X002240Y012465D01*
X002221Y012420D01*
X002198Y012376D01*
X002171Y012335D01*
X002141Y012296D01*
X002109Y012260D01*
X002073Y012227D01*
X002035Y012196D01*
X001994Y012169D01*
X001951Y012145D01*
X001907Y012125D01*
X001861Y012108D01*
X001814Y012095D01*
X001765Y012086D01*
X001717Y012081D01*
X001668Y012080D01*
X001619Y012083D01*
X001570Y012090D01*
X001523Y012101D01*
X001476Y012116D01*
X001431Y012134D01*
X001387Y012156D01*
X001345Y012182D01*
X001306Y012211D01*
X001269Y012243D01*
X001235Y012278D01*
X001203Y012316D01*
X001175Y012356D01*
X001150Y012398D01*
X001129Y012442D01*
X001112Y012488D01*
X001098Y012535D01*
X001088Y012583D01*
X001082Y012631D01*
X001080Y012680D01*
X014080Y012680D02*
X014082Y012729D01*
X014088Y012777D01*
X014098Y012825D01*
X014112Y012872D01*
X014129Y012918D01*
X014150Y012962D01*
X014175Y013004D01*
X014203Y013044D01*
X014235Y013082D01*
X014269Y013117D01*
X014306Y013149D01*
X014345Y013178D01*
X014387Y013204D01*
X014431Y013226D01*
X014476Y013244D01*
X014523Y013259D01*
X014570Y013270D01*
X014619Y013277D01*
X014668Y013280D01*
X014717Y013279D01*
X014765Y013274D01*
X014814Y013265D01*
X014861Y013252D01*
X014907Y013235D01*
X014951Y013215D01*
X014994Y013191D01*
X015035Y013164D01*
X015073Y013133D01*
X015109Y013100D01*
X015141Y013064D01*
X015171Y013025D01*
X015198Y012984D01*
X015221Y012940D01*
X015240Y012895D01*
X015256Y012849D01*
X015268Y012802D01*
X015276Y012753D01*
X015280Y012704D01*
X015280Y012656D01*
X015276Y012607D01*
X015268Y012558D01*
X015256Y012511D01*
X015240Y012465D01*
X015221Y012420D01*
X015198Y012376D01*
X015171Y012335D01*
X015141Y012296D01*
X015109Y012260D01*
X015073Y012227D01*
X015035Y012196D01*
X014994Y012169D01*
X014951Y012145D01*
X014907Y012125D01*
X014861Y012108D01*
X014814Y012095D01*
X014765Y012086D01*
X014717Y012081D01*
X014668Y012080D01*
X014619Y012083D01*
X014570Y012090D01*
X014523Y012101D01*
X014476Y012116D01*
X014431Y012134D01*
X014387Y012156D01*
X014345Y012182D01*
X014306Y012211D01*
X014269Y012243D01*
X014235Y012278D01*
X014203Y012316D01*
X014175Y012356D01*
X014150Y012398D01*
X014129Y012442D01*
X014112Y012488D01*
X014098Y012535D01*
X014088Y012583D01*
X014082Y012631D01*
X014080Y012680D01*
D11*
X008050Y010180D03*
X006910Y010180D03*
X009130Y006630D03*
X010270Y006630D03*
X005380Y005220D03*
X005380Y004080D03*
D12*
X006680Y004180D03*
X007430Y004680D03*
X006680Y005180D03*
D13*
X003630Y008930D03*
X012710Y006220D03*
D14*
X012710Y005220D03*
X003630Y009930D03*
D15*
X004180Y012420D02*
X004180Y012940D01*
X005180Y012940D02*
X005180Y012420D01*
X006180Y012420D02*
X006180Y012940D01*
X010180Y012940D02*
X010180Y012420D01*
X011180Y012420D02*
X011180Y012940D01*
X012180Y012940D02*
X012180Y012420D01*
D16*
X012535Y012068D02*
X013335Y012068D01*
X013258Y012218D02*
X013471Y011801D01*
X013801Y011471D01*
X013801Y011471D01*
X014218Y011258D01*
X014218Y011258D01*
X014680Y011185D01*
X015142Y011258D01*
X015559Y011471D01*
X015810Y011722D01*
X015810Y000420D01*
X002460Y000420D01*
X002559Y000471D01*
X002889Y000801D01*
X002889Y000801D01*
X003102Y001218D01*
X003102Y001218D01*
X003175Y001680D01*
X003102Y002142D01*
X002889Y002559D01*
X002559Y002889D01*
X002142Y003102D01*
X001680Y003175D01*
X001218Y003102D01*
X000801Y002889D01*
X000471Y002559D01*
X000420Y002460D01*
X000420Y011900D01*
X000471Y011801D01*
X000801Y011471D01*
X000801Y011471D01*
X001218Y011258D01*
X001218Y011258D01*
X001680Y011185D01*
X002142Y011258D01*
X002559Y011471D01*
X002889Y011801D01*
X002889Y011801D01*
X003102Y012218D01*
X003102Y012218D01*
X003175Y012680D01*
X003102Y013142D01*
X002889Y013559D01*
X002559Y013889D01*
X002467Y013936D01*
X013893Y013936D01*
X013801Y013889D01*
X013471Y013559D01*
X013258Y013142D01*
X013185Y012680D01*
X013185Y012680D01*
X013258Y012218D01*
X013258Y012218D01*
X013257Y012226D02*
X012641Y012226D01*
X012604Y012137D02*
X012680Y012321D01*
X012680Y013039D01*
X012604Y013223D01*
X012463Y013364D01*
X012279Y013440D01*
X012081Y013440D01*
X011897Y013364D01*
X011756Y013223D01*
X011680Y013039D01*
X011680Y012321D01*
X011756Y012137D01*
X011897Y011996D01*
X012081Y011920D01*
X012279Y011920D01*
X012463Y011996D01*
X012604Y012137D01*
X012680Y012385D02*
X013232Y012385D01*
X013207Y012543D02*
X012680Y012543D01*
X012680Y012702D02*
X013188Y012702D01*
X013214Y012860D02*
X012680Y012860D01*
X012680Y013019D02*
X013239Y013019D01*
X013258Y013142D02*
X013258Y013142D01*
X013276Y013177D02*
X012623Y013177D01*
X012492Y013336D02*
X013357Y013336D01*
X013438Y013494D02*
X002922Y013494D01*
X002889Y013559D02*
X002889Y013559D01*
X002796Y013653D02*
X013564Y013653D01*
X013471Y013559D02*
X013471Y013559D01*
X013723Y013811D02*
X002637Y013811D01*
X002559Y013889D02*
X002559Y013889D01*
X003003Y013336D02*
X003868Y013336D01*
X003897Y013364D02*
X003756Y013223D01*
X003680Y013039D01*
X003680Y012321D01*
X003756Y012137D01*
X003897Y011996D01*
X004081Y011920D01*
X004279Y011920D01*
X004463Y011996D01*
X004604Y012137D01*
X004680Y012321D01*
X004680Y013039D01*
X004604Y013223D01*
X004463Y013364D01*
X004279Y013440D01*
X004081Y013440D01*
X003897Y013364D01*
X003737Y013177D02*
X003084Y013177D01*
X003102Y013142D02*
X003102Y013142D01*
X003121Y013019D02*
X003680Y013019D01*
X003680Y012860D02*
X003146Y012860D01*
X003172Y012702D02*
X003680Y012702D01*
X003680Y012543D02*
X003153Y012543D01*
X003128Y012385D02*
X003680Y012385D01*
X003719Y012226D02*
X003103Y012226D01*
X003025Y012068D02*
X003825Y012068D01*
X004535Y012068D02*
X004825Y012068D01*
X004756Y012137D02*
X004897Y011996D01*
X005081Y011920D01*
X005279Y011920D01*
X005463Y011996D01*
X005604Y012137D01*
X005680Y012321D01*
X005756Y012137D01*
X005897Y011996D01*
X006081Y011920D01*
X006279Y011920D01*
X006463Y011996D01*
X006604Y012137D01*
X006680Y012321D01*
X006680Y013039D01*
X006604Y013223D01*
X006463Y013364D01*
X006279Y013440D01*
X006081Y013440D01*
X005897Y013364D01*
X005756Y013223D01*
X005680Y013039D01*
X005680Y012321D01*
X005680Y013039D01*
X005604Y013223D01*
X005463Y013364D01*
X005279Y013440D01*
X005081Y013440D01*
X004897Y013364D01*
X004756Y013223D01*
X004680Y013039D01*
X004680Y012321D01*
X004756Y012137D01*
X004719Y012226D02*
X004641Y012226D01*
X004680Y012385D02*
X004680Y012385D01*
X004680Y012543D02*
X004680Y012543D01*
X004680Y012702D02*
X004680Y012702D01*
X004680Y012860D02*
X004680Y012860D01*
X004680Y013019D02*
X004680Y013019D01*
X004623Y013177D02*
X004737Y013177D01*
X004868Y013336D02*
X004492Y013336D01*
X005492Y013336D02*
X005868Y013336D01*
X005737Y013177D02*
X005623Y013177D01*
X005680Y013019D02*
X005680Y013019D01*
X005680Y012860D02*
X005680Y012860D01*
X005680Y012702D02*
X005680Y012702D01*
X005680Y012543D02*
X005680Y012543D01*
X005680Y012385D02*
X005680Y012385D01*
X005641Y012226D02*
X005719Y012226D01*
X005825Y012068D02*
X005535Y012068D01*
X006535Y012068D02*
X009825Y012068D01*
X009756Y012137D02*
X009680Y012321D01*
X009680Y013039D01*
X009756Y013223D01*
X009897Y013364D01*
X010081Y013440D01*
X010279Y013440D01*
X010463Y013364D01*
X010604Y013223D01*
X010680Y013039D01*
X010680Y012321D01*
X010604Y012137D01*
X010463Y011996D01*
X010279Y011920D01*
X010081Y011920D01*
X009897Y011996D01*
X009756Y012137D01*
X009719Y012226D02*
X006641Y012226D01*
X006680Y012385D02*
X009680Y012385D01*
X009680Y012543D02*
X006680Y012543D01*
X006680Y012702D02*
X009680Y012702D01*
X009680Y012860D02*
X006680Y012860D01*
X006680Y013019D02*
X009680Y013019D01*
X009737Y013177D02*
X006623Y013177D01*
X006492Y013336D02*
X009868Y013336D01*
X010492Y013336D02*
X010868Y013336D01*
X010897Y013364D02*
X010756Y013223D01*
X010680Y013039D01*
X010680Y012321D01*
X010756Y012137D01*
X010897Y011996D01*
X011081Y011920D01*
X011279Y011920D01*
X011463Y011996D01*
X011604Y012137D01*
X011680Y012321D01*
X011680Y013039D01*
X011604Y013223D01*
X011463Y013364D01*
X011279Y013440D01*
X011081Y013440D01*
X010897Y013364D01*
X010737Y013177D02*
X010623Y013177D01*
X010680Y013019D02*
X010680Y013019D01*
X010680Y012860D02*
X010680Y012860D01*
X010680Y012702D02*
X010680Y012702D01*
X010680Y012543D02*
X010680Y012543D01*
X010680Y012385D02*
X010680Y012385D01*
X010641Y012226D02*
X010719Y012226D01*
X010825Y012068D02*
X010535Y012068D01*
X011535Y012068D02*
X011825Y012068D01*
X011719Y012226D02*
X011641Y012226D01*
X011680Y012385D02*
X011680Y012385D01*
X011680Y012543D02*
X011680Y012543D01*
X011680Y012702D02*
X011680Y012702D01*
X011680Y012860D02*
X011680Y012860D01*
X011680Y013019D02*
X011680Y013019D01*
X011623Y013177D02*
X011737Y013177D01*
X011868Y013336D02*
X011492Y013336D01*
X013416Y011909D02*
X002944Y011909D01*
X002839Y011751D02*
X013521Y011751D01*
X013471Y011801D02*
X013471Y011801D01*
X013680Y011592D02*
X002680Y011592D01*
X002559Y011471D02*
X002559Y011471D01*
X002486Y011434D02*
X013874Y011434D01*
X014185Y011275D02*
X002175Y011275D01*
X002142Y011258D02*
X002142Y011258D01*
X001680Y011185D02*
X001680Y011185D01*
X001185Y011275D02*
X000420Y011275D01*
X000420Y011117D02*
X015810Y011117D01*
X015810Y011275D02*
X015175Y011275D01*
X015142Y011258D02*
X015142Y011258D01*
X015486Y011434D02*
X015810Y011434D01*
X015810Y011592D02*
X015680Y011592D01*
X015559Y011471D02*
X015559Y011471D01*
X015810Y010958D02*
X000420Y010958D01*
X000420Y010800D02*
X015810Y010800D01*
X015810Y010641D02*
X008452Y010641D01*
X008396Y010697D02*
X008171Y010790D01*
X007929Y010790D01*
X007704Y010697D01*
X007533Y010526D01*
X007480Y010398D01*
X007427Y010526D01*
X007256Y010697D01*
X007031Y010790D01*
X006789Y010790D01*
X006564Y010697D01*
X006393Y010526D01*
X006300Y010301D01*
X006300Y010059D01*
X006393Y009834D01*
X006564Y009663D01*
X006789Y009570D01*
X007031Y009570D01*
X007256Y009663D01*
X007427Y009834D01*
X007480Y009962D01*
X007533Y009834D01*
X007704Y009663D01*
X007929Y009570D01*
X008171Y009570D01*
X008396Y009663D01*
X008567Y009834D01*
X008660Y010059D01*
X008660Y010301D01*
X008567Y010526D01*
X008396Y010697D01*
X008585Y010483D02*
X009550Y010483D01*
X009568Y010490D02*
X009454Y010443D01*
X009292Y010280D01*
X009250Y010280D01*
X009103Y010219D01*
X008991Y010107D01*
X008930Y009960D01*
X008930Y009800D01*
X008991Y009653D01*
X009103Y009541D01*
X009250Y009480D01*
X009410Y009480D01*
X009557Y009541D01*
X009669Y009653D01*
X009730Y009800D01*
X009730Y009842D01*
X009758Y009870D01*
X010552Y009870D01*
X010833Y009588D01*
X010780Y009460D01*
X010780Y009300D01*
X010841Y009153D01*
X010953Y009041D01*
X011100Y008980D01*
X011260Y008980D01*
X011407Y009041D01*
X011519Y009153D01*
X011580Y009300D01*
X011580Y009460D01*
X011519Y009607D01*
X011490Y009636D01*
X011490Y009742D01*
X011443Y009856D01*
X010943Y010356D01*
X010856Y010443D01*
X010742Y010490D01*
X009568Y010490D01*
X009336Y010324D02*
X008651Y010324D01*
X008660Y010166D02*
X009050Y010166D01*
X008950Y010007D02*
X008639Y010007D01*
X008573Y009849D02*
X008930Y009849D01*
X008976Y009690D02*
X008423Y009690D01*
X009126Y009532D02*
X004031Y009532D01*
X004003Y009495D02*
X003994Y009495D01*
X004109Y009610D01*
X004195Y009818D01*
X004195Y010042D01*
X004109Y010250D01*
X003950Y010409D01*
X003742Y010495D01*
X003518Y010495D01*
X003310Y010409D01*
X003151Y010250D01*
X003065Y010042D01*
X003065Y009818D01*
X003151Y009610D01*
X003266Y009495D01*
X003257Y009495D01*
X003169Y009458D01*
X003102Y009391D01*
X003065Y009303D01*
X003065Y008803D01*
X001717Y007456D01*
X001670Y007342D01*
X001670Y007186D01*
X001641Y007157D01*
X001580Y007010D01*
X001580Y006850D01*
X001641Y006703D01*
X001753Y006591D01*
X001900Y006530D01*
X002060Y006530D01*
X002207Y006591D01*
X002319Y006703D01*
X002380Y006850D01*
X002380Y007010D01*
X002319Y007157D01*
X002307Y007169D01*
X003503Y008365D01*
X004003Y008365D01*
X004091Y008402D01*
X004158Y008469D01*
X004195Y008557D01*
X004195Y009303D01*
X004158Y009391D01*
X004091Y009458D01*
X004003Y009495D01*
X004166Y009373D02*
X010780Y009373D01*
X010810Y009532D02*
X009534Y009532D01*
X009684Y009690D02*
X010732Y009690D01*
X010573Y009849D02*
X009737Y009849D01*
X010760Y010483D02*
X015810Y010483D01*
X015810Y010324D02*
X010974Y010324D01*
X011133Y010166D02*
X015810Y010166D01*
X015810Y010007D02*
X011291Y010007D01*
X011446Y009849D02*
X015810Y009849D01*
X015810Y009690D02*
X011490Y009690D01*
X011550Y009532D02*
X015810Y009532D01*
X015810Y009373D02*
X011580Y009373D01*
X011544Y009215D02*
X015810Y009215D01*
X015810Y009056D02*
X011422Y009056D01*
X010938Y009056D02*
X004195Y009056D01*
X004195Y009215D02*
X010816Y009215D01*
X010399Y007166D02*
X010313Y007180D01*
X010290Y007180D01*
X010290Y006650D01*
X010250Y006650D01*
X010250Y007180D01*
X010227Y007180D01*
X010141Y007166D01*
X010059Y007140D01*
X009982Y007100D01*
X009912Y007050D01*
X009850Y006988D01*
X009800Y006918D01*
X009760Y006841D01*
X009735Y006763D01*
X009647Y006976D01*
X009476Y007147D01*
X009251Y007240D01*
X009009Y007240D01*
X008784Y007147D01*
X008613Y006976D01*
X008520Y006751D01*
X008520Y006509D01*
X008613Y006284D01*
X008784Y006113D01*
X009009Y006020D01*
X009251Y006020D01*
X009476Y006113D01*
X009647Y006284D01*
X009735Y006497D01*
X009760Y006419D01*
X009800Y006342D01*
X009850Y006272D01*
X009912Y006210D01*
X009982Y006160D01*
X010059Y006120D01*
X010141Y006094D01*
X010227Y006080D01*
X010250Y006080D01*
X010250Y006610D01*
X010290Y006610D01*
X010290Y006650D01*
X010820Y006650D01*
X010820Y006673D01*
X010806Y006759D01*
X010780Y006841D01*
X010740Y006918D01*
X010690Y006988D01*
X010628Y007050D01*
X010558Y007100D01*
X010481Y007140D01*
X010399Y007166D01*
X010437Y007154D02*
X015810Y007154D01*
X015810Y006996D02*
X010682Y006996D01*
X010781Y006837D02*
X015810Y006837D01*
X015810Y006679D02*
X013239Y006679D01*
X013238Y006681D02*
X013171Y006748D01*
X013083Y006785D01*
X012337Y006785D01*
X012249Y006748D01*
X012182Y006681D01*
X012145Y006593D01*
X012145Y005847D01*
X012182Y005759D01*
X012249Y005692D01*
X012337Y005655D01*
X012346Y005655D01*
X012231Y005540D01*
X012210Y005489D01*
X012194Y005483D01*
X011392Y004680D01*
X011350Y004680D01*
X011203Y004619D01*
X011091Y004507D01*
X011030Y004360D01*
X011030Y004200D01*
X011091Y004053D01*
X011120Y004024D01*
X011120Y002706D01*
X011080Y002610D01*
X011080Y002450D01*
X011141Y002303D01*
X011253Y002191D01*
X011400Y002130D01*
X011560Y002130D01*
X011707Y002191D01*
X011819Y002303D01*
X011880Y002450D01*
X011880Y002610D01*
X011819Y002757D01*
X011740Y002836D01*
X011740Y004024D01*
X011769Y004053D01*
X011830Y004200D01*
X011830Y004242D01*
X012360Y004771D01*
X012390Y004741D01*
X012598Y004655D01*
X012822Y004655D01*
X013030Y004741D01*
X013189Y004900D01*
X013275Y005108D01*
X013275Y005332D01*
X013189Y005540D01*
X013074Y005655D01*
X013083Y005655D01*
X013171Y005692D01*
X013238Y005759D01*
X013275Y005847D01*
X013275Y006593D01*
X013238Y006681D01*
X013275Y006520D02*
X015810Y006520D01*
X015810Y006362D02*
X013275Y006362D01*
X013275Y006203D02*
X015810Y006203D01*
X015810Y006045D02*
X013275Y006045D01*
X013275Y005886D02*
X015810Y005886D01*
X015810Y005728D02*
X013207Y005728D01*
X013160Y005569D02*
X015810Y005569D01*
X015810Y005411D02*
X013243Y005411D01*
X013275Y005252D02*
X015810Y005252D01*
X015810Y005094D02*
X013269Y005094D01*
X013204Y004935D02*
X015810Y004935D01*
X015810Y004777D02*
X013066Y004777D01*
X012206Y004618D02*
X015810Y004618D01*
X015810Y004460D02*
X012048Y004460D01*
X011889Y004301D02*
X015810Y004301D01*
X015810Y004143D02*
X011806Y004143D01*
X011740Y003984D02*
X015810Y003984D01*
X015810Y003826D02*
X011740Y003826D01*
X011740Y003667D02*
X015810Y003667D01*
X015810Y003509D02*
X011740Y003509D01*
X011740Y003350D02*
X015810Y003350D01*
X015810Y003192D02*
X011740Y003192D01*
X011740Y003033D02*
X015810Y003033D01*
X015810Y002875D02*
X011740Y002875D01*
X011836Y002716D02*
X015810Y002716D01*
X015810Y002558D02*
X011880Y002558D01*
X011859Y002399D02*
X015810Y002399D01*
X015810Y002241D02*
X011756Y002241D01*
X011204Y002241D02*
X003052Y002241D01*
X003102Y002142D02*
X003102Y002142D01*
X003111Y002082D02*
X015810Y002082D01*
X015810Y001924D02*
X003136Y001924D01*
X003162Y001765D02*
X015810Y001765D01*
X015810Y001607D02*
X003163Y001607D01*
X003138Y001448D02*
X015810Y001448D01*
X015810Y001290D02*
X003113Y001290D01*
X003057Y001131D02*
X015810Y001131D01*
X015810Y000973D02*
X002977Y000973D01*
X002896Y000814D02*
X015810Y000814D01*
X015810Y000656D02*
X002744Y000656D01*
X002585Y000497D02*
X015810Y000497D01*
X011101Y002399D02*
X002971Y002399D01*
X002890Y002558D02*
X011080Y002558D01*
X011120Y002716D02*
X002732Y002716D01*
X002889Y002559D02*
X002889Y002559D01*
X002574Y002875D02*
X011120Y002875D01*
X011120Y003033D02*
X002277Y003033D01*
X002142Y003102D02*
X002142Y003102D01*
X002559Y002889D02*
X002559Y002889D01*
X001680Y003175D02*
X001680Y003175D01*
X001218Y003102D02*
X001218Y003102D01*
X001083Y003033D02*
X000420Y003033D01*
X000420Y002875D02*
X000786Y002875D01*
X000801Y002889D02*
X000801Y002889D01*
X000801Y002889D01*
X000628Y002716D02*
X000420Y002716D01*
X000420Y002558D02*
X000470Y002558D01*
X000471Y002559D02*
X000471Y002559D01*
X000420Y003192D02*
X011120Y003192D01*
X011120Y003350D02*
X000420Y003350D01*
X000420Y003509D02*
X005166Y003509D01*
X005259Y003470D02*
X005034Y003563D01*
X004863Y003734D01*
X004770Y003959D01*
X004770Y004201D01*
X004863Y004426D01*
X005034Y004597D01*
X005162Y004650D01*
X005034Y004703D01*
X004863Y004874D01*
X004770Y005099D01*
X004770Y005341D01*
X004863Y005566D01*
X005034Y005737D01*
X005259Y005830D01*
X005501Y005830D01*
X005726Y005737D01*
X005897Y005566D01*
X005990Y005341D01*
X005990Y005099D01*
X005897Y004874D01*
X005726Y004703D01*
X005598Y004650D01*
X005726Y004597D01*
X005897Y004426D01*
X005990Y004201D01*
X005990Y003959D01*
X005897Y003734D01*
X005726Y003563D01*
X005501Y003470D01*
X005259Y003470D01*
X005594Y003509D02*
X011120Y003509D01*
X011120Y003667D02*
X005830Y003667D01*
X005935Y003826D02*
X006327Y003826D01*
X006473Y003680D02*
X006180Y003973D01*
X006180Y004387D01*
X006473Y004680D01*
X006887Y004680D01*
X006930Y004637D01*
X006930Y004808D01*
X006862Y004740D01*
X006680Y004740D01*
X006680Y005180D01*
X006680Y005180D01*
X006680Y005620D01*
X006862Y005620D01*
X007120Y005362D01*
X007120Y005180D01*
X006680Y005180D01*
X006680Y005180D01*
X006680Y005180D01*
X006240Y005180D01*
X006240Y005362D01*
X006498Y005620D01*
X006680Y005620D01*
X006680Y005180D01*
X007120Y005180D01*
X007120Y005077D01*
X007223Y005180D01*
X007637Y005180D01*
X007930Y004887D01*
X007930Y004473D01*
X007637Y004180D01*
X007223Y004180D01*
X007180Y004223D01*
X007180Y003973D01*
X006887Y003680D01*
X006473Y003680D01*
X006180Y003984D02*
X005990Y003984D01*
X005990Y004143D02*
X006180Y004143D01*
X006180Y004301D02*
X005949Y004301D01*
X005863Y004460D02*
X006252Y004460D01*
X006411Y004618D02*
X005675Y004618D01*
X005799Y004777D02*
X006461Y004777D01*
X006498Y004740D02*
X006240Y004998D01*
X006240Y005180D01*
X006680Y005180D01*
X006680Y005180D01*
X006680Y004740D01*
X006498Y004740D01*
X006680Y004777D02*
X006680Y004777D01*
X006680Y004935D02*
X006680Y004935D01*
X006680Y005094D02*
X006680Y005094D01*
X006680Y005252D02*
X006680Y005252D01*
X006680Y005411D02*
X006680Y005411D01*
X006680Y005569D02*
X006680Y005569D01*
X006447Y005569D02*
X005894Y005569D01*
X005961Y005411D02*
X006288Y005411D01*
X006240Y005252D02*
X005990Y005252D01*
X005988Y005094D02*
X006240Y005094D01*
X006303Y004935D02*
X005922Y004935D01*
X005735Y005728D02*
X012213Y005728D01*
X012260Y005569D02*
X006913Y005569D01*
X007072Y005411D02*
X012122Y005411D01*
X011964Y005252D02*
X007120Y005252D01*
X007120Y005094D02*
X007136Y005094D01*
X006930Y004777D02*
X006899Y004777D01*
X007180Y004143D02*
X011054Y004143D01*
X011030Y004301D02*
X007758Y004301D01*
X007917Y004460D02*
X011071Y004460D01*
X011202Y004618D02*
X007930Y004618D01*
X007930Y004777D02*
X011488Y004777D01*
X011647Y004935D02*
X007882Y004935D01*
X007724Y005094D02*
X011805Y005094D01*
X012145Y005886D02*
X000420Y005886D01*
X000420Y005728D02*
X005025Y005728D01*
X004866Y005569D02*
X000420Y005569D01*
X000420Y005411D02*
X004799Y005411D01*
X004770Y005252D02*
X000420Y005252D01*
X000420Y005094D02*
X004772Y005094D01*
X004838Y004935D02*
X000420Y004935D01*
X000420Y004777D02*
X004961Y004777D01*
X005085Y004618D02*
X000420Y004618D01*
X000420Y004460D02*
X004897Y004460D01*
X004811Y004301D02*
X000420Y004301D01*
X000420Y004143D02*
X004770Y004143D01*
X004770Y003984D02*
X000420Y003984D01*
X000420Y003826D02*
X004825Y003826D01*
X004930Y003667D02*
X000420Y003667D01*
X000420Y006045D02*
X008949Y006045D01*
X008694Y006203D02*
X000420Y006203D01*
X000420Y006362D02*
X008581Y006362D01*
X008520Y006520D02*
X000420Y006520D01*
X000420Y006679D02*
X001666Y006679D01*
X001586Y006837D02*
X000420Y006837D01*
X000420Y006996D02*
X001580Y006996D01*
X001640Y007154D02*
X000420Y007154D01*
X000420Y007313D02*
X001670Y007313D01*
X001733Y007471D02*
X000420Y007471D01*
X000420Y007630D02*
X001891Y007630D01*
X002050Y007788D02*
X000420Y007788D01*
X000420Y007947D02*
X002208Y007947D01*
X002367Y008105D02*
X000420Y008105D01*
X000420Y008264D02*
X002525Y008264D01*
X002684Y008422D02*
X000420Y008422D01*
X000420Y008581D02*
X002842Y008581D01*
X003001Y008739D02*
X000420Y008739D01*
X000420Y008898D02*
X003065Y008898D01*
X003065Y009056D02*
X000420Y009056D01*
X000420Y009215D02*
X003065Y009215D01*
X003094Y009373D02*
X000420Y009373D01*
X000420Y009532D02*
X003229Y009532D01*
X003118Y009690D02*
X000420Y009690D01*
X000420Y009849D02*
X003065Y009849D01*
X003065Y010007D02*
X000420Y010007D01*
X000420Y010166D02*
X003116Y010166D01*
X003225Y010324D02*
X000420Y010324D01*
X000420Y010483D02*
X003487Y010483D01*
X003773Y010483D02*
X006375Y010483D01*
X006508Y010641D02*
X000420Y010641D01*
X000420Y011434D02*
X000874Y011434D01*
X000680Y011592D02*
X000420Y011592D01*
X000420Y011751D02*
X000521Y011751D01*
X000471Y011801D02*
X000471Y011801D01*
X004035Y010324D02*
X006309Y010324D01*
X006300Y010166D02*
X004144Y010166D01*
X004195Y010007D02*
X006321Y010007D01*
X006387Y009849D02*
X004195Y009849D01*
X004142Y009690D02*
X006537Y009690D01*
X007283Y009690D02*
X007677Y009690D01*
X007527Y009849D02*
X007433Y009849D01*
X007445Y010483D02*
X007515Y010483D01*
X007648Y010641D02*
X007312Y010641D01*
X004195Y008898D02*
X015810Y008898D01*
X015810Y008739D02*
X004195Y008739D01*
X004195Y008581D02*
X015810Y008581D01*
X015810Y008422D02*
X004111Y008422D01*
X003402Y008264D02*
X015810Y008264D01*
X015810Y008105D02*
X003243Y008105D01*
X003085Y007947D02*
X015810Y007947D01*
X015810Y007788D02*
X002926Y007788D01*
X002768Y007630D02*
X015810Y007630D01*
X015810Y007471D02*
X002609Y007471D01*
X002451Y007313D02*
X015810Y007313D01*
X012181Y006679D02*
X010819Y006679D01*
X010820Y006610D02*
X010290Y006610D01*
X010290Y006080D01*
X010313Y006080D01*
X010399Y006094D01*
X010481Y006120D01*
X010558Y006160D01*
X010628Y006210D01*
X010690Y006272D01*
X010740Y006342D01*
X010780Y006419D01*
X010806Y006501D01*
X010820Y006587D01*
X010820Y006610D01*
X010809Y006520D02*
X012145Y006520D01*
X012145Y006362D02*
X010750Y006362D01*
X010618Y006203D02*
X012145Y006203D01*
X012145Y006045D02*
X009311Y006045D01*
X009566Y006203D02*
X009922Y006203D01*
X009790Y006362D02*
X009679Y006362D01*
X009705Y006837D02*
X009759Y006837D01*
X009858Y006996D02*
X009627Y006996D01*
X009459Y007154D02*
X010103Y007154D01*
X010250Y007154D02*
X010290Y007154D01*
X010290Y006996D02*
X010250Y006996D01*
X010250Y006837D02*
X010290Y006837D01*
X010290Y006679D02*
X010250Y006679D01*
X010250Y006520D02*
X010290Y006520D01*
X010290Y006362D02*
X010250Y006362D01*
X010250Y006203D02*
X010290Y006203D01*
X008801Y007154D02*
X002320Y007154D01*
X002380Y006996D02*
X008633Y006996D01*
X008555Y006837D02*
X002374Y006837D01*
X002294Y006679D02*
X008520Y006679D01*
X007180Y003984D02*
X011120Y003984D01*
X011120Y003826D02*
X007033Y003826D01*
X002559Y000471D02*
X002559Y000471D01*
X014680Y011185D02*
X014680Y011185D01*
X013801Y013889D02*
X013801Y013889D01*
D17*
X009330Y009880D03*
X010050Y008270D03*
X011180Y009380D03*
X011430Y004280D03*
X011480Y002530D03*
X001980Y006930D03*
X003810Y010990D03*
D18*
X005010Y010820D01*
X005140Y010690D01*
D19*
X003630Y008930D02*
X001980Y007280D01*
X001980Y006930D01*
X009330Y009880D02*
X009630Y010180D01*
X010680Y010180D01*
X011180Y009680D01*
X011180Y009380D01*
X012370Y005220D02*
X011430Y004280D01*
X011430Y002580D01*
X011480Y002530D01*
X012370Y005220D02*
X012710Y005220D01*
M02*
