%
M48
M72
T01C0.0200
T02C0.0276
T03C0.0320
T04C0.0400
T05C0.1200
%
T01
X10050Y8270
X3810Y10990
X11430Y4280
X11480Y2530
X11180Y9380
X9330Y9880
X1980Y6930
T02
X12710Y6220
X12710Y5220
X3630Y8930
X3630Y9930
T03
X6680Y4180
X7430Y4680
X6680Y5180
X10180Y12680
X12180Y12680
X11180Y12680
X4180Y12680
X6180Y12680
X5180Y12680
T04
X5380Y5220
X5380Y4080
X6910Y10180
X8050Y10180
X10270Y6630
X9130Y6630
T05
X1680Y12680
X1680Y1680
X14680Y12680
M30
