G75*
%MOIN*%
%OFA0B0*%
%FSLAX24Y24*%
%IPPOS*%
%LPD*%
%AMOC8*
5,1,8,0,0,1.08239X$1,22.5*
%
%ADD10C,0.0000*%
%ADD11C,0.0780*%
%ADD12C,0.1240*%
%ADD13OC8,0.0560*%
%ADD14R,0.0690X0.0690*%
%ADD15C,0.0690*%
%ADD16C,0.0560*%
D10*
X000180Y000180D02*
X000180Y014176D01*
X016050Y014176D01*
X016050Y000180D01*
X000180Y000180D01*
X001080Y001680D02*
X001082Y001729D01*
X001088Y001777D01*
X001098Y001825D01*
X001112Y001872D01*
X001129Y001918D01*
X001150Y001962D01*
X001175Y002004D01*
X001203Y002044D01*
X001235Y002082D01*
X001269Y002117D01*
X001306Y002149D01*
X001345Y002178D01*
X001387Y002204D01*
X001431Y002226D01*
X001476Y002244D01*
X001523Y002259D01*
X001570Y002270D01*
X001619Y002277D01*
X001668Y002280D01*
X001717Y002279D01*
X001765Y002274D01*
X001814Y002265D01*
X001861Y002252D01*
X001907Y002235D01*
X001951Y002215D01*
X001994Y002191D01*
X002035Y002164D01*
X002073Y002133D01*
X002109Y002100D01*
X002141Y002064D01*
X002171Y002025D01*
X002198Y001984D01*
X002221Y001940D01*
X002240Y001895D01*
X002256Y001849D01*
X002268Y001802D01*
X002276Y001753D01*
X002280Y001704D01*
X002280Y001656D01*
X002276Y001607D01*
X002268Y001558D01*
X002256Y001511D01*
X002240Y001465D01*
X002221Y001420D01*
X002198Y001376D01*
X002171Y001335D01*
X002141Y001296D01*
X002109Y001260D01*
X002073Y001227D01*
X002035Y001196D01*
X001994Y001169D01*
X001951Y001145D01*
X001907Y001125D01*
X001861Y001108D01*
X001814Y001095D01*
X001765Y001086D01*
X001717Y001081D01*
X001668Y001080D01*
X001619Y001083D01*
X001570Y001090D01*
X001523Y001101D01*
X001476Y001116D01*
X001431Y001134D01*
X001387Y001156D01*
X001345Y001182D01*
X001306Y001211D01*
X001269Y001243D01*
X001235Y001278D01*
X001203Y001316D01*
X001175Y001356D01*
X001150Y001398D01*
X001129Y001442D01*
X001112Y001488D01*
X001098Y001535D01*
X001088Y001583D01*
X001082Y001631D01*
X001080Y001680D01*
X001080Y012680D02*
X001082Y012729D01*
X001088Y012777D01*
X001098Y012825D01*
X001112Y012872D01*
X001129Y012918D01*
X001150Y012962D01*
X001175Y013004D01*
X001203Y013044D01*
X001235Y013082D01*
X001269Y013117D01*
X001306Y013149D01*
X001345Y013178D01*
X001387Y013204D01*
X001431Y013226D01*
X001476Y013244D01*
X001523Y013259D01*
X001570Y013270D01*
X001619Y013277D01*
X001668Y013280D01*
X001717Y013279D01*
X001765Y013274D01*
X001814Y013265D01*
X001861Y013252D01*
X001907Y013235D01*
X001951Y013215D01*
X001994Y013191D01*
X002035Y013164D01*
X002073Y013133D01*
X002109Y013100D01*
X002141Y013064D01*
X002171Y013025D01*
X002198Y012984D01*
X002221Y012940D01*
X002240Y012895D01*
X002256Y012849D01*
X002268Y012802D01*
X002276Y012753D01*
X002280Y012704D01*
X002280Y012656D01*
X002276Y012607D01*
X002268Y012558D01*
X002256Y012511D01*
X002240Y012465D01*
X002221Y012420D01*
X002198Y012376D01*
X002171Y012335D01*
X002141Y012296D01*
X002109Y012260D01*
X002073Y012227D01*
X002035Y012196D01*
X001994Y012169D01*
X001951Y012145D01*
X001907Y012125D01*
X001861Y012108D01*
X001814Y012095D01*
X001765Y012086D01*
X001717Y012081D01*
X001668Y012080D01*
X001619Y012083D01*
X001570Y012090D01*
X001523Y012101D01*
X001476Y012116D01*
X001431Y012134D01*
X001387Y012156D01*
X001345Y012182D01*
X001306Y012211D01*
X001269Y012243D01*
X001235Y012278D01*
X001203Y012316D01*
X001175Y012356D01*
X001150Y012398D01*
X001129Y012442D01*
X001112Y012488D01*
X001098Y012535D01*
X001088Y012583D01*
X001082Y012631D01*
X001080Y012680D01*
X014080Y012680D02*
X014082Y012729D01*
X014088Y012777D01*
X014098Y012825D01*
X014112Y012872D01*
X014129Y012918D01*
X014150Y012962D01*
X014175Y013004D01*
X014203Y013044D01*
X014235Y013082D01*
X014269Y013117D01*
X014306Y013149D01*
X014345Y013178D01*
X014387Y013204D01*
X014431Y013226D01*
X014476Y013244D01*
X014523Y013259D01*
X014570Y013270D01*
X014619Y013277D01*
X014668Y013280D01*
X014717Y013279D01*
X014765Y013274D01*
X014814Y013265D01*
X014861Y013252D01*
X014907Y013235D01*
X014951Y013215D01*
X014994Y013191D01*
X015035Y013164D01*
X015073Y013133D01*
X015109Y013100D01*
X015141Y013064D01*
X015171Y013025D01*
X015198Y012984D01*
X015221Y012940D01*
X015240Y012895D01*
X015256Y012849D01*
X015268Y012802D01*
X015276Y012753D01*
X015280Y012704D01*
X015280Y012656D01*
X015276Y012607D01*
X015268Y012558D01*
X015256Y012511D01*
X015240Y012465D01*
X015221Y012420D01*
X015198Y012376D01*
X015171Y012335D01*
X015141Y012296D01*
X015109Y012260D01*
X015073Y012227D01*
X015035Y012196D01*
X014994Y012169D01*
X014951Y012145D01*
X014907Y012125D01*
X014861Y012108D01*
X014814Y012095D01*
X014765Y012086D01*
X014717Y012081D01*
X014668Y012080D01*
X014619Y012083D01*
X014570Y012090D01*
X014523Y012101D01*
X014476Y012116D01*
X014431Y012134D01*
X014387Y012156D01*
X014345Y012182D01*
X014306Y012211D01*
X014269Y012243D01*
X014235Y012278D01*
X014203Y012316D01*
X014175Y012356D01*
X014150Y012398D01*
X014129Y012442D01*
X014112Y012488D01*
X014098Y012535D01*
X014088Y012583D01*
X014082Y012631D01*
X014080Y012680D01*
D11*
X008050Y010180D03*
X006910Y010180D03*
X009130Y006630D03*
X010270Y006630D03*
X005380Y005220D03*
X005380Y004080D03*
D12*
X001680Y001680D03*
X001680Y012680D03*
X014680Y012680D03*
D13*
X006680Y005180D03*
X007430Y004680D03*
X006680Y004180D03*
D14*
X003630Y008930D03*
X012710Y006220D03*
D15*
X012710Y005220D03*
X003630Y009930D03*
D16*
X004180Y012420D02*
X004180Y012940D01*
X005180Y012940D02*
X005180Y012420D01*
X006180Y012420D02*
X006180Y012940D01*
X010180Y012940D02*
X010180Y012420D01*
X011180Y012420D02*
X011180Y012940D01*
X012180Y012940D02*
X012180Y012420D01*
M02*
