G75*
%MOIN*%
%OFA0B0*%
%FSLAX24Y24*%
%IPPOS*%
%LPD*%
%AMOC8*
5,1,8,0,0,1.08239X$1,22.5*
%
%ADD10C,0.0000*%
%ADD11C,0.0060*%
%ADD12C,0.0040*%
%ADD13C,0.0020*%
%ADD14C,0.0080*%
%ADD15C,0.0050*%
%ADD16C,0.0030*%
%ADD17C,0.0010*%
%ADD18C,0.0120*%
D10*
X000180Y000180D02*
X000180Y014176D01*
X016050Y014176D01*
X016050Y000180D01*
X000180Y000180D01*
X001080Y001680D02*
X001082Y001729D01*
X001088Y001777D01*
X001098Y001825D01*
X001112Y001872D01*
X001129Y001918D01*
X001150Y001962D01*
X001175Y002004D01*
X001203Y002044D01*
X001235Y002082D01*
X001269Y002117D01*
X001306Y002149D01*
X001345Y002178D01*
X001387Y002204D01*
X001431Y002226D01*
X001476Y002244D01*
X001523Y002259D01*
X001570Y002270D01*
X001619Y002277D01*
X001668Y002280D01*
X001717Y002279D01*
X001765Y002274D01*
X001814Y002265D01*
X001861Y002252D01*
X001907Y002235D01*
X001951Y002215D01*
X001994Y002191D01*
X002035Y002164D01*
X002073Y002133D01*
X002109Y002100D01*
X002141Y002064D01*
X002171Y002025D01*
X002198Y001984D01*
X002221Y001940D01*
X002240Y001895D01*
X002256Y001849D01*
X002268Y001802D01*
X002276Y001753D01*
X002280Y001704D01*
X002280Y001656D01*
X002276Y001607D01*
X002268Y001558D01*
X002256Y001511D01*
X002240Y001465D01*
X002221Y001420D01*
X002198Y001376D01*
X002171Y001335D01*
X002141Y001296D01*
X002109Y001260D01*
X002073Y001227D01*
X002035Y001196D01*
X001994Y001169D01*
X001951Y001145D01*
X001907Y001125D01*
X001861Y001108D01*
X001814Y001095D01*
X001765Y001086D01*
X001717Y001081D01*
X001668Y001080D01*
X001619Y001083D01*
X001570Y001090D01*
X001523Y001101D01*
X001476Y001116D01*
X001431Y001134D01*
X001387Y001156D01*
X001345Y001182D01*
X001306Y001211D01*
X001269Y001243D01*
X001235Y001278D01*
X001203Y001316D01*
X001175Y001356D01*
X001150Y001398D01*
X001129Y001442D01*
X001112Y001488D01*
X001098Y001535D01*
X001088Y001583D01*
X001082Y001631D01*
X001080Y001680D01*
X008060Y007271D02*
X008062Y007292D01*
X008067Y007312D01*
X008076Y007331D01*
X008088Y007348D01*
X008103Y007363D01*
X008120Y007375D01*
X008139Y007384D01*
X008159Y007389D01*
X008180Y007391D01*
X008201Y007389D01*
X008221Y007384D01*
X008240Y007375D01*
X008257Y007363D01*
X008272Y007348D01*
X008284Y007331D01*
X008293Y007312D01*
X008298Y007292D01*
X008300Y007271D01*
X014080Y012680D02*
X014082Y012729D01*
X014088Y012777D01*
X014098Y012825D01*
X014112Y012872D01*
X014129Y012918D01*
X014150Y012962D01*
X014175Y013004D01*
X014203Y013044D01*
X014235Y013082D01*
X014269Y013117D01*
X014306Y013149D01*
X014345Y013178D01*
X014387Y013204D01*
X014431Y013226D01*
X014476Y013244D01*
X014523Y013259D01*
X014570Y013270D01*
X014619Y013277D01*
X014668Y013280D01*
X014717Y013279D01*
X014765Y013274D01*
X014814Y013265D01*
X014861Y013252D01*
X014907Y013235D01*
X014951Y013215D01*
X014994Y013191D01*
X015035Y013164D01*
X015073Y013133D01*
X015109Y013100D01*
X015141Y013064D01*
X015171Y013025D01*
X015198Y012984D01*
X015221Y012940D01*
X015240Y012895D01*
X015256Y012849D01*
X015268Y012802D01*
X015276Y012753D01*
X015280Y012704D01*
X015280Y012656D01*
X015276Y012607D01*
X015268Y012558D01*
X015256Y012511D01*
X015240Y012465D01*
X015221Y012420D01*
X015198Y012376D01*
X015171Y012335D01*
X015141Y012296D01*
X015109Y012260D01*
X015073Y012227D01*
X015035Y012196D01*
X014994Y012169D01*
X014951Y012145D01*
X014907Y012125D01*
X014861Y012108D01*
X014814Y012095D01*
X014765Y012086D01*
X014717Y012081D01*
X014668Y012080D01*
X014619Y012083D01*
X014570Y012090D01*
X014523Y012101D01*
X014476Y012116D01*
X014431Y012134D01*
X014387Y012156D01*
X014345Y012182D01*
X014306Y012211D01*
X014269Y012243D01*
X014235Y012278D01*
X014203Y012316D01*
X014175Y012356D01*
X014150Y012398D01*
X014129Y012442D01*
X014112Y012488D01*
X014098Y012535D01*
X014088Y012583D01*
X014082Y012631D01*
X014080Y012680D01*
X001080Y012680D02*
X001082Y012729D01*
X001088Y012777D01*
X001098Y012825D01*
X001112Y012872D01*
X001129Y012918D01*
X001150Y012962D01*
X001175Y013004D01*
X001203Y013044D01*
X001235Y013082D01*
X001269Y013117D01*
X001306Y013149D01*
X001345Y013178D01*
X001387Y013204D01*
X001431Y013226D01*
X001476Y013244D01*
X001523Y013259D01*
X001570Y013270D01*
X001619Y013277D01*
X001668Y013280D01*
X001717Y013279D01*
X001765Y013274D01*
X001814Y013265D01*
X001861Y013252D01*
X001907Y013235D01*
X001951Y013215D01*
X001994Y013191D01*
X002035Y013164D01*
X002073Y013133D01*
X002109Y013100D01*
X002141Y013064D01*
X002171Y013025D01*
X002198Y012984D01*
X002221Y012940D01*
X002240Y012895D01*
X002256Y012849D01*
X002268Y012802D01*
X002276Y012753D01*
X002280Y012704D01*
X002280Y012656D01*
X002276Y012607D01*
X002268Y012558D01*
X002256Y012511D01*
X002240Y012465D01*
X002221Y012420D01*
X002198Y012376D01*
X002171Y012335D01*
X002141Y012296D01*
X002109Y012260D01*
X002073Y012227D01*
X002035Y012196D01*
X001994Y012169D01*
X001951Y012145D01*
X001907Y012125D01*
X001861Y012108D01*
X001814Y012095D01*
X001765Y012086D01*
X001717Y012081D01*
X001668Y012080D01*
X001619Y012083D01*
X001570Y012090D01*
X001523Y012101D01*
X001476Y012116D01*
X001431Y012134D01*
X001387Y012156D01*
X001345Y012182D01*
X001306Y012211D01*
X001269Y012243D01*
X001235Y012278D01*
X001203Y012316D01*
X001175Y012356D01*
X001150Y012398D01*
X001129Y012442D01*
X001112Y012488D01*
X001098Y012535D01*
X001088Y012583D01*
X001082Y012631D01*
X001080Y012680D01*
D11*
X002182Y010947D02*
X002418Y010947D01*
X002418Y010474D02*
X002182Y010474D01*
X002272Y009839D02*
X002272Y009603D01*
X001800Y009603D02*
X001800Y009839D01*
X001478Y010312D02*
X001478Y010548D01*
X001005Y010548D02*
X001005Y010312D01*
X001006Y009358D02*
X001006Y009122D01*
X001478Y009122D02*
X001478Y009358D01*
X001801Y008645D02*
X001801Y008409D01*
X002274Y008409D02*
X002274Y008645D01*
X003062Y006966D02*
X003298Y006966D01*
X003298Y006494D02*
X003062Y006494D01*
X004624Y009012D02*
X004624Y009248D01*
X005096Y009248D02*
X005096Y009012D01*
X005657Y009682D02*
X005657Y009918D01*
X006129Y009918D02*
X006129Y009682D01*
X006920Y009101D02*
X006920Y008981D01*
X007290Y008981D01*
X007290Y009101D01*
X006920Y009101D01*
X006920Y008841D02*
X006920Y008721D01*
X007290Y008721D01*
X007290Y008841D01*
X006920Y008841D01*
X006920Y008591D02*
X006920Y008471D01*
X007290Y008471D01*
X007290Y008591D01*
X006920Y008591D01*
X006920Y008331D02*
X006920Y008211D01*
X007290Y008211D01*
X007290Y008331D01*
X006920Y008331D01*
X006920Y008071D02*
X006920Y007951D01*
X007290Y007951D01*
X007290Y008071D01*
X006920Y008071D01*
X006920Y007821D02*
X006920Y007701D01*
X007290Y007701D01*
X007290Y007821D01*
X006920Y007821D01*
X006920Y007561D02*
X006920Y007441D01*
X007290Y007441D01*
X007290Y007561D01*
X006920Y007561D01*
X007290Y007271D02*
X008060Y007271D01*
X008300Y007271D01*
X009070Y007271D01*
X009070Y009271D01*
X007290Y009271D01*
X007290Y007271D01*
X007140Y006336D02*
X006904Y006336D01*
X006904Y005863D02*
X007140Y005863D01*
X009070Y007441D02*
X009070Y007561D01*
X009440Y007561D01*
X009440Y007441D01*
X009070Y007441D01*
X009070Y007701D02*
X009440Y007701D01*
X009440Y007821D01*
X009070Y007821D01*
X009070Y007701D01*
X009070Y007951D02*
X009440Y007951D01*
X009440Y008071D01*
X009070Y008071D01*
X009070Y007951D01*
X009070Y008211D02*
X009440Y008211D01*
X009440Y008331D01*
X009070Y008331D01*
X009070Y008211D01*
X009070Y008471D02*
X009440Y008471D01*
X009440Y008591D01*
X009070Y008591D01*
X009070Y008471D01*
X009070Y008721D02*
X009440Y008721D01*
X009440Y008841D01*
X009070Y008841D01*
X009070Y008721D01*
X009070Y008981D02*
X009440Y008981D01*
X009440Y009101D01*
X009070Y009101D01*
X009070Y008981D01*
X011054Y007978D02*
X011054Y007742D01*
X011526Y007742D02*
X011526Y007978D01*
X012162Y008243D02*
X012398Y008243D01*
X012398Y008716D02*
X012162Y008716D01*
X012473Y007707D02*
X012473Y007471D01*
X012945Y007471D02*
X012945Y007707D01*
X013872Y008204D02*
X014108Y008204D01*
X014108Y008676D02*
X013872Y008676D01*
X013874Y008790D02*
X014110Y008790D01*
X014110Y009263D02*
X013874Y009263D01*
X012423Y010814D02*
X012423Y011050D01*
X011951Y011050D02*
X011951Y010814D01*
X013080Y011680D02*
X013080Y013680D01*
X009280Y013680D01*
X009280Y011680D01*
X013080Y011680D01*
X008970Y011920D02*
X008970Y012156D01*
X008498Y012156D02*
X008498Y011920D01*
X008504Y013092D02*
X008504Y013328D01*
X008976Y013328D02*
X008976Y013092D01*
X007080Y013680D02*
X007080Y011680D01*
X003280Y011680D01*
X003280Y013680D01*
X007080Y013680D01*
X011054Y006858D02*
X011054Y006622D01*
X011526Y006622D02*
X011526Y006858D01*
X011146Y005298D02*
X011146Y005062D01*
X010674Y005062D02*
X010674Y005298D01*
X010286Y005298D02*
X010286Y005062D01*
X009814Y005062D02*
X009814Y005298D01*
D12*
X010395Y005312D02*
X010395Y005379D01*
X010428Y005412D01*
X010562Y005279D01*
X010595Y005312D01*
X010595Y005379D01*
X010562Y005412D01*
X010428Y005412D01*
X010395Y005312D02*
X010428Y005279D01*
X010562Y005279D01*
X010595Y005191D02*
X010595Y005058D01*
X010595Y005125D02*
X010395Y005125D01*
X010462Y005058D01*
X010428Y004970D02*
X010395Y004937D01*
X010395Y004870D01*
X010428Y004837D01*
X010562Y004837D01*
X010595Y004870D01*
X010595Y004937D01*
X010562Y004970D01*
X011255Y004937D02*
X011255Y004837D01*
X011455Y004837D01*
X011388Y004837D02*
X011388Y004937D01*
X011355Y004970D01*
X011288Y004970D01*
X011255Y004937D01*
X011288Y005058D02*
X011255Y005091D01*
X011255Y005158D01*
X011288Y005191D01*
X011322Y005191D01*
X011455Y005058D01*
X011455Y005191D01*
X011355Y005279D02*
X011355Y005412D01*
X011390Y005423D02*
X011423Y005390D01*
X011557Y005390D01*
X011590Y005423D01*
X011590Y005490D01*
X011557Y005523D01*
X011590Y005611D02*
X011457Y005744D01*
X011423Y005744D01*
X011390Y005711D01*
X011390Y005644D01*
X011423Y005611D01*
X011423Y005523D02*
X011390Y005490D01*
X011390Y005423D01*
X011455Y005379D02*
X011255Y005379D01*
X011355Y005279D01*
X011455Y004970D02*
X011388Y004904D01*
X011590Y005611D02*
X011590Y005744D01*
X011635Y006397D02*
X011635Y006497D01*
X011668Y006530D01*
X011735Y006530D01*
X011768Y006497D01*
X011768Y006397D01*
X011768Y006464D02*
X011835Y006530D01*
X011835Y006618D02*
X011702Y006751D01*
X011668Y006751D01*
X011635Y006718D01*
X011635Y006651D01*
X011668Y006618D01*
X011835Y006618D02*
X011835Y006751D01*
X011835Y006839D02*
X011835Y006972D01*
X011835Y006906D02*
X011635Y006906D01*
X011702Y006839D01*
X011635Y006397D02*
X011835Y006397D01*
X012164Y007309D02*
X012164Y007409D01*
X012197Y007443D01*
X012264Y007443D01*
X012297Y007409D01*
X012297Y007309D01*
X012364Y007309D02*
X012164Y007309D01*
X012297Y007376D02*
X012364Y007443D01*
X012364Y007530D02*
X012230Y007663D01*
X012197Y007663D01*
X012164Y007630D01*
X012164Y007563D01*
X012197Y007530D01*
X012213Y007541D02*
X012079Y007541D01*
X012213Y007674D01*
X012213Y007708D01*
X012179Y007741D01*
X012113Y007741D01*
X012079Y007708D01*
X011992Y007708D02*
X011992Y007641D01*
X011958Y007607D01*
X011858Y007607D01*
X011835Y007650D02*
X011768Y007584D01*
X011768Y007617D02*
X011768Y007517D01*
X011835Y007517D02*
X011635Y007517D01*
X011635Y007617D01*
X011668Y007650D01*
X011735Y007650D01*
X011768Y007617D01*
X011858Y007541D02*
X011858Y007741D01*
X011958Y007741D01*
X011992Y007708D01*
X011925Y007607D02*
X011992Y007541D01*
X011835Y007738D02*
X011702Y007871D01*
X011668Y007871D01*
X011635Y007838D01*
X011635Y007771D01*
X011668Y007738D01*
X011835Y007738D02*
X011835Y007871D01*
X011802Y007959D02*
X011668Y007959D01*
X011635Y007992D01*
X011635Y008059D01*
X011668Y008092D01*
X011802Y007959D01*
X011835Y007992D01*
X011835Y008059D01*
X011802Y008092D01*
X011668Y008092D01*
X012300Y007708D02*
X012334Y007741D01*
X012400Y007741D01*
X012434Y007708D01*
X012434Y007674D01*
X012300Y007541D01*
X012434Y007541D01*
X012364Y007530D02*
X012364Y007663D01*
X013710Y008785D02*
X013710Y008985D01*
X013810Y008985D01*
X013843Y008952D01*
X013843Y008885D01*
X013810Y008852D01*
X013710Y008852D01*
X013777Y008852D02*
X013843Y008785D01*
X013931Y008785D02*
X014064Y008918D01*
X014064Y008952D01*
X014031Y008985D01*
X013964Y008985D01*
X013931Y008952D01*
X013931Y008785D02*
X014064Y008785D01*
X014152Y008818D02*
X014185Y008785D01*
X014252Y008785D01*
X014285Y008818D01*
X014285Y008852D01*
X014252Y008885D01*
X014219Y008885D01*
X014252Y008885D02*
X014285Y008918D01*
X014285Y008952D01*
X014252Y008985D01*
X014185Y008985D01*
X014152Y008952D01*
X014066Y009372D02*
X013933Y009372D01*
X013999Y009372D02*
X013999Y009572D01*
X013933Y009505D01*
X013845Y009472D02*
X013812Y009438D01*
X013712Y009438D01*
X013712Y009372D02*
X013712Y009572D01*
X013812Y009572D01*
X013845Y009539D01*
X013845Y009472D01*
X013778Y009438D02*
X013845Y009372D01*
X012732Y010589D02*
X012532Y010589D01*
X012532Y010689D01*
X012565Y010723D01*
X012632Y010723D01*
X012665Y010689D01*
X012665Y010589D01*
X012665Y010656D02*
X012732Y010723D01*
X012732Y010810D02*
X012732Y010944D01*
X012732Y010877D02*
X012532Y010877D01*
X012599Y010810D01*
X012565Y011031D02*
X012532Y011064D01*
X012532Y011131D01*
X012565Y011165D01*
X012699Y011031D01*
X012732Y011064D01*
X012732Y011131D01*
X012699Y011165D01*
X012565Y011165D01*
X012565Y011031D02*
X012699Y011031D01*
X009279Y011916D02*
X009079Y011916D01*
X009079Y012016D01*
X009112Y012049D01*
X009179Y012049D01*
X009212Y012016D01*
X009212Y011916D01*
X009212Y011983D02*
X009279Y012049D01*
X009279Y012137D02*
X009246Y012137D01*
X009112Y012270D01*
X009079Y012270D01*
X009079Y012137D01*
X009085Y012867D02*
X009085Y012967D01*
X009118Y013000D01*
X009185Y013000D01*
X009218Y012967D01*
X009218Y012867D01*
X009218Y012934D02*
X009285Y013000D01*
X009285Y013088D02*
X009285Y013221D01*
X009285Y013155D02*
X009085Y013155D01*
X009152Y013088D01*
X009152Y013309D02*
X009085Y013376D01*
X009285Y013376D01*
X009285Y013442D02*
X009285Y013309D01*
X009285Y012867D02*
X009085Y012867D01*
X006420Y010095D02*
X006454Y010062D01*
X006454Y009995D01*
X006420Y009962D01*
X006387Y009962D01*
X006354Y009995D01*
X006354Y010062D01*
X006387Y010095D01*
X006420Y010095D01*
X006354Y010062D02*
X006320Y010095D01*
X006287Y010095D01*
X006253Y010062D01*
X006253Y009995D01*
X006287Y009962D01*
X006320Y009962D01*
X006354Y009995D01*
X006320Y009874D02*
X006287Y009874D01*
X006253Y009841D01*
X006253Y009774D01*
X006287Y009741D01*
X006287Y009653D02*
X006354Y009653D01*
X006387Y009620D01*
X006387Y009520D01*
X006454Y009520D02*
X006253Y009520D01*
X006253Y009620D01*
X006287Y009653D01*
X006387Y009587D02*
X006454Y009653D01*
X006454Y009741D02*
X006320Y009874D01*
X006454Y009874D02*
X006454Y009741D01*
X004950Y009712D02*
X004950Y009579D01*
X004950Y009646D02*
X004750Y009646D01*
X004817Y009579D01*
X004783Y009491D02*
X004750Y009458D01*
X004750Y009391D01*
X004783Y009358D01*
X004917Y009358D01*
X004950Y009391D01*
X004950Y009458D01*
X004917Y009491D01*
X004515Y009171D02*
X004515Y009104D01*
X004482Y009071D01*
X004415Y009071D02*
X004382Y009138D01*
X004382Y009171D01*
X004415Y009204D01*
X004482Y009204D01*
X004515Y009171D01*
X004415Y009071D02*
X004315Y009071D01*
X004315Y009204D01*
X004348Y008983D02*
X004415Y008983D01*
X004448Y008950D01*
X004448Y008850D01*
X004448Y008917D02*
X004515Y008983D01*
X004515Y008850D02*
X004315Y008850D01*
X004315Y008950D01*
X004348Y008983D01*
X002858Y008429D02*
X002825Y008429D01*
X002691Y008563D01*
X002658Y008563D01*
X002658Y008429D01*
X002691Y008342D02*
X002658Y008309D01*
X002658Y008242D01*
X002691Y008208D01*
X002691Y008121D02*
X002758Y008121D01*
X002791Y008088D01*
X002791Y007988D01*
X002791Y008054D02*
X002858Y008121D01*
X002858Y008208D02*
X002725Y008342D01*
X002691Y008342D01*
X002858Y008342D02*
X002858Y008208D01*
X002691Y008121D02*
X002658Y008088D01*
X002658Y007988D01*
X002858Y007988D01*
X002900Y007275D02*
X003000Y007275D01*
X003033Y007242D01*
X003033Y007175D01*
X003000Y007142D01*
X002900Y007142D01*
X002967Y007142D02*
X003033Y007075D01*
X003121Y007108D02*
X003154Y007075D01*
X003221Y007075D01*
X003254Y007108D01*
X003254Y007142D01*
X003221Y007175D01*
X003188Y007175D01*
X003221Y007175D02*
X003254Y007208D01*
X003254Y007242D01*
X003221Y007275D01*
X003154Y007275D01*
X003121Y007242D01*
X002900Y007275D02*
X002900Y007075D01*
X004550Y006029D02*
X004583Y006062D01*
X004617Y006062D01*
X004650Y006029D01*
X004683Y006062D01*
X004717Y006062D01*
X004750Y006029D01*
X004750Y005962D01*
X004717Y005929D01*
X004717Y005841D02*
X004583Y005841D01*
X004550Y005808D01*
X004550Y005708D01*
X004750Y005708D01*
X004750Y005808D01*
X004717Y005841D01*
X004583Y005929D02*
X004550Y005962D01*
X004550Y006029D01*
X004650Y006029D02*
X004650Y005996D01*
X001810Y004671D02*
X001610Y004671D01*
X001710Y004571D01*
X001710Y004704D01*
X001777Y004483D02*
X001643Y004483D01*
X001610Y004450D01*
X001610Y004350D01*
X001810Y004350D01*
X001810Y004450D01*
X001777Y004483D01*
X006950Y003296D02*
X007150Y003296D01*
X007150Y003362D02*
X007150Y003229D01*
X007117Y003141D02*
X006950Y003141D01*
X007017Y003229D02*
X006950Y003296D01*
X007117Y003141D02*
X007150Y003108D01*
X007150Y003041D01*
X007117Y003008D01*
X006950Y003008D01*
X007602Y006444D02*
X007669Y006444D01*
X007702Y006478D01*
X007790Y006478D02*
X007790Y006511D01*
X007823Y006544D01*
X007890Y006544D01*
X007923Y006511D01*
X007923Y006478D01*
X007890Y006444D01*
X007823Y006444D01*
X007790Y006478D01*
X007823Y006544D02*
X007790Y006578D01*
X007790Y006611D01*
X007823Y006645D01*
X007890Y006645D01*
X007923Y006611D01*
X007923Y006578D01*
X007890Y006544D01*
X007702Y006611D02*
X007669Y006645D01*
X007602Y006645D01*
X007569Y006611D01*
X007569Y006478D01*
X007602Y006444D01*
X002581Y009378D02*
X002381Y009378D01*
X002381Y009478D01*
X002414Y009512D01*
X002481Y009512D01*
X002514Y009478D01*
X002514Y009378D01*
X002514Y009445D02*
X002581Y009512D01*
X002581Y009599D02*
X002448Y009733D01*
X002414Y009733D01*
X002381Y009699D01*
X002381Y009633D01*
X002414Y009599D01*
X002581Y009599D02*
X002581Y009733D01*
X002548Y009820D02*
X002581Y009854D01*
X002581Y009920D01*
X002548Y009954D01*
X002514Y009954D01*
X002481Y009920D01*
X002481Y009820D01*
X002548Y009820D01*
X002481Y009820D02*
X002414Y009887D01*
X002381Y009954D01*
X000897Y009975D02*
X000897Y009908D01*
X000864Y009874D01*
X000797Y009874D02*
X000764Y009941D01*
X000764Y009975D01*
X000797Y010008D01*
X000864Y010008D01*
X000897Y009975D01*
X000797Y009874D02*
X000697Y009874D01*
X000697Y010008D01*
X000730Y009787D02*
X000697Y009754D01*
X000697Y009687D01*
X000730Y009653D01*
X000730Y009566D02*
X000797Y009566D01*
X000830Y009533D01*
X000830Y009432D01*
X000830Y009499D02*
X000897Y009566D01*
X000897Y009653D02*
X000764Y009787D01*
X000730Y009787D01*
X000897Y009787D02*
X000897Y009653D01*
X000730Y009566D02*
X000697Y009533D01*
X000697Y009432D01*
X000897Y009432D01*
X000881Y010505D02*
X000681Y010505D01*
X000681Y010605D01*
X000714Y010638D01*
X000781Y010638D01*
X000814Y010605D01*
X000814Y010505D01*
X000814Y010572D02*
X000881Y010638D01*
X000847Y010726D02*
X000881Y010759D01*
X000881Y010826D01*
X000847Y010859D01*
X000814Y010859D01*
X000781Y010826D01*
X000781Y010726D01*
X000847Y010726D01*
X000781Y010726D02*
X000714Y010793D01*
X000681Y010859D01*
X002177Y011483D02*
X002211Y011449D01*
X002278Y011449D01*
X002311Y011483D01*
X002398Y011483D02*
X002398Y011449D01*
X002398Y011483D02*
X002532Y011616D01*
X002532Y011650D01*
X002398Y011650D01*
X002311Y011616D02*
X002278Y011650D01*
X002211Y011650D01*
X002177Y011616D01*
X002177Y011483D01*
X004974Y011744D02*
X005107Y011744D01*
X005195Y011744D02*
X005328Y011744D01*
X005416Y011744D02*
X005516Y011744D01*
X005549Y011777D01*
X005549Y011911D01*
X005516Y011944D01*
X005416Y011944D01*
X005416Y011744D01*
X005261Y011844D02*
X005195Y011844D01*
X005195Y011944D02*
X005195Y011744D01*
X004974Y011744D02*
X004974Y011944D01*
X005195Y011944D02*
X005328Y011944D01*
X005637Y011911D02*
X005670Y011944D01*
X005737Y011944D01*
X005770Y011911D01*
X005770Y011877D01*
X005637Y011744D01*
X005770Y011744D01*
D13*
X006533Y011130D02*
X006607Y011130D01*
X006570Y011130D02*
X006570Y010947D01*
X006533Y010910D01*
X006497Y010910D01*
X006460Y010947D01*
X006681Y010910D02*
X006828Y011057D01*
X006828Y011093D01*
X006791Y011130D01*
X006718Y011130D01*
X006681Y011093D01*
X006681Y010910D02*
X006828Y010910D01*
X008281Y012714D02*
X008428Y012714D01*
X008464Y012751D01*
X008464Y012824D01*
X008428Y012861D01*
X008354Y012935D02*
X008244Y013045D01*
X008464Y013045D01*
X008354Y013082D02*
X008354Y012935D01*
X008281Y012861D02*
X008244Y012824D01*
X008244Y012751D01*
X008281Y012714D01*
X009530Y013180D02*
X009532Y013211D01*
X009538Y013242D01*
X009548Y013272D01*
X009561Y013300D01*
X009578Y013327D01*
X009598Y013351D01*
X009621Y013373D01*
X009646Y013391D01*
X009674Y013406D01*
X009703Y013418D01*
X009733Y013426D01*
X009764Y013430D01*
X009796Y013430D01*
X009827Y013426D01*
X009857Y013418D01*
X009886Y013406D01*
X009914Y013391D01*
X009939Y013373D01*
X009962Y013351D01*
X009982Y013327D01*
X009999Y013300D01*
X010012Y013272D01*
X010022Y013242D01*
X010028Y013211D01*
X010030Y013180D01*
X010028Y013149D01*
X010022Y013118D01*
X010012Y013088D01*
X009999Y013060D01*
X009982Y013033D01*
X009962Y013009D01*
X009939Y012987D01*
X009914Y012969D01*
X009886Y012954D01*
X009857Y012942D01*
X009827Y012934D01*
X009796Y012930D01*
X009764Y012930D01*
X009733Y012934D01*
X009703Y012942D01*
X009674Y012954D01*
X009646Y012969D01*
X009621Y012987D01*
X009598Y013009D01*
X009578Y013033D01*
X009561Y013060D01*
X009548Y013088D01*
X009538Y013118D01*
X009532Y013149D01*
X009530Y013180D01*
X010019Y010284D02*
X009982Y010247D01*
X009982Y010100D01*
X010019Y010064D01*
X010092Y010064D01*
X010129Y010100D01*
X010203Y010100D02*
X010240Y010064D01*
X010313Y010064D01*
X010350Y010100D01*
X010350Y010137D01*
X010313Y010174D01*
X010276Y010174D01*
X010313Y010174D02*
X010350Y010211D01*
X010350Y010247D01*
X010313Y010284D01*
X010240Y010284D01*
X010203Y010247D01*
X010129Y010247D02*
X010092Y010284D01*
X010019Y010284D01*
X012582Y010212D02*
X012582Y010065D01*
X012692Y010065D01*
X012655Y010139D01*
X012655Y010175D01*
X012692Y010212D01*
X012765Y010212D01*
X012802Y010175D01*
X012802Y010102D01*
X012765Y010065D01*
X012765Y009991D02*
X012802Y009954D01*
X012802Y009881D01*
X012765Y009844D01*
X012618Y009844D01*
X012582Y009881D01*
X012582Y009954D01*
X012618Y009991D01*
X010629Y005900D02*
X010519Y005790D01*
X010666Y005790D01*
X010629Y005680D02*
X010629Y005900D01*
X010445Y005900D02*
X010371Y005900D01*
X010408Y005900D02*
X010408Y005717D01*
X010371Y005680D01*
X010335Y005680D01*
X010298Y005717D01*
X006330Y005616D02*
X006330Y005469D01*
X006330Y005542D02*
X006110Y005542D01*
X006183Y005469D01*
X006110Y005395D02*
X006110Y005321D01*
X006110Y005358D02*
X006293Y005358D01*
X006330Y005321D01*
X006330Y005285D01*
X006293Y005248D01*
X003530Y013180D02*
X003532Y013211D01*
X003538Y013242D01*
X003548Y013272D01*
X003561Y013300D01*
X003578Y013327D01*
X003598Y013351D01*
X003621Y013373D01*
X003646Y013391D01*
X003674Y013406D01*
X003703Y013418D01*
X003733Y013426D01*
X003764Y013430D01*
X003796Y013430D01*
X003827Y013426D01*
X003857Y013418D01*
X003886Y013406D01*
X003914Y013391D01*
X003939Y013373D01*
X003962Y013351D01*
X003982Y013327D01*
X003999Y013300D01*
X004012Y013272D01*
X004022Y013242D01*
X004028Y013211D01*
X004030Y013180D01*
X004028Y013149D01*
X004022Y013118D01*
X004012Y013088D01*
X003999Y013060D01*
X003982Y013033D01*
X003962Y013009D01*
X003939Y012987D01*
X003914Y012969D01*
X003886Y012954D01*
X003857Y012942D01*
X003827Y012934D01*
X003796Y012930D01*
X003764Y012930D01*
X003733Y012934D01*
X003703Y012942D01*
X003674Y012954D01*
X003646Y012969D01*
X003621Y012987D01*
X003598Y013009D01*
X003578Y013033D01*
X003561Y013060D01*
X003548Y013088D01*
X003538Y013118D01*
X003532Y013149D01*
X003530Y013180D01*
D14*
X004515Y011514D02*
X004515Y010726D01*
X005066Y010726D01*
X005342Y010884D02*
X005578Y011120D01*
X005342Y011356D01*
X005342Y010884D01*
X005578Y010844D02*
X005578Y011120D01*
X005578Y011396D01*
X005854Y011514D02*
X006405Y011514D01*
X006405Y010726D01*
X005854Y010726D01*
X006480Y010430D02*
X006730Y010680D01*
X007230Y010680D01*
X007480Y010430D01*
X007730Y010680D01*
X008230Y010680D01*
X008480Y010430D01*
X008480Y009930D01*
X008230Y009680D01*
X007730Y009680D01*
X007480Y009930D01*
X007230Y009680D01*
X006730Y009680D01*
X006480Y009930D01*
X006480Y010430D01*
X005066Y011514D02*
X004515Y011514D01*
X004180Y010130D02*
X004180Y009730D01*
X002646Y009430D02*
X002648Y009492D01*
X002654Y009555D01*
X002664Y009616D01*
X002678Y009677D01*
X002695Y009737D01*
X002716Y009796D01*
X002742Y009853D01*
X002770Y009908D01*
X002802Y009962D01*
X002838Y010013D01*
X002876Y010063D01*
X002918Y010109D01*
X002962Y010153D01*
X003010Y010194D01*
X003059Y010232D01*
X003111Y010266D01*
X003165Y010297D01*
X003221Y010325D01*
X003279Y010349D01*
X003338Y010370D01*
X003398Y010386D01*
X003459Y010399D01*
X003521Y010408D01*
X003583Y010413D01*
X003646Y010414D01*
X003708Y010411D01*
X003770Y010404D01*
X003832Y010393D01*
X003892Y010378D01*
X003952Y010360D01*
X004010Y010338D01*
X004067Y010312D01*
X004122Y010282D01*
X004175Y010249D01*
X004226Y010213D01*
X004274Y010174D01*
X004320Y010131D01*
X004363Y010086D01*
X004403Y010038D01*
X004440Y009988D01*
X004474Y009935D01*
X004505Y009881D01*
X004531Y009825D01*
X004555Y009767D01*
X004574Y009707D01*
X004590Y009647D01*
X004602Y009585D01*
X004610Y009524D01*
X004614Y009461D01*
X004614Y009399D01*
X004610Y009336D01*
X004602Y009275D01*
X004590Y009213D01*
X004574Y009153D01*
X004555Y009093D01*
X004531Y009035D01*
X004505Y008979D01*
X004474Y008925D01*
X004440Y008872D01*
X004403Y008822D01*
X004363Y008774D01*
X004320Y008729D01*
X004274Y008686D01*
X004226Y008647D01*
X004175Y008611D01*
X004122Y008578D01*
X004067Y008548D01*
X004010Y008522D01*
X003952Y008500D01*
X003892Y008482D01*
X003832Y008467D01*
X003770Y008456D01*
X003708Y008449D01*
X003646Y008446D01*
X003583Y008447D01*
X003521Y008452D01*
X003459Y008461D01*
X003398Y008474D01*
X003338Y008490D01*
X003279Y008511D01*
X003221Y008535D01*
X003165Y008563D01*
X003111Y008594D01*
X003059Y008628D01*
X003010Y008666D01*
X002962Y008707D01*
X002918Y008751D01*
X002876Y008797D01*
X002838Y008847D01*
X002802Y008898D01*
X002770Y008952D01*
X002742Y009007D01*
X002716Y009064D01*
X002695Y009123D01*
X002678Y009183D01*
X002664Y009244D01*
X002654Y009305D01*
X002648Y009368D01*
X002646Y009430D01*
X002874Y006136D02*
X003051Y006136D01*
X003051Y004324D01*
X002874Y004324D01*
X003309Y004324D02*
X003309Y006136D01*
X003486Y006136D01*
X002874Y005624D02*
X002086Y005624D01*
X002086Y006136D02*
X001909Y006136D01*
X001909Y004324D01*
X002086Y004324D01*
X003309Y004324D02*
X003486Y004324D01*
X003486Y004836D02*
X004274Y004836D01*
X004274Y004324D02*
X004451Y004324D01*
X004451Y006136D01*
X004274Y006136D01*
X004880Y005400D02*
X004880Y004900D01*
X005130Y004650D01*
X004880Y004400D01*
X004880Y003900D01*
X005130Y003650D01*
X005630Y003650D01*
X005880Y003900D01*
X005880Y004400D01*
X005630Y004650D01*
X005880Y004900D01*
X005880Y005400D01*
X005630Y005650D01*
X005130Y005650D01*
X004880Y005400D01*
X008700Y006380D02*
X008700Y006880D01*
X008950Y007130D01*
X009450Y007130D01*
X009700Y006880D01*
X009950Y007130D01*
X010450Y007130D01*
X010700Y006880D01*
X010700Y006380D01*
X010450Y006130D01*
X009950Y006130D01*
X009700Y006380D01*
X009450Y006130D01*
X008950Y006130D01*
X008700Y006380D01*
X012160Y005420D02*
X012160Y005020D01*
X011726Y005720D02*
X011728Y005782D01*
X011734Y005845D01*
X011744Y005906D01*
X011758Y005967D01*
X011775Y006027D01*
X011796Y006086D01*
X011822Y006143D01*
X011850Y006198D01*
X011882Y006252D01*
X011918Y006303D01*
X011956Y006353D01*
X011998Y006399D01*
X012042Y006443D01*
X012090Y006484D01*
X012139Y006522D01*
X012191Y006556D01*
X012245Y006587D01*
X012301Y006615D01*
X012359Y006639D01*
X012418Y006660D01*
X012478Y006676D01*
X012539Y006689D01*
X012601Y006698D01*
X012663Y006703D01*
X012726Y006704D01*
X012788Y006701D01*
X012850Y006694D01*
X012912Y006683D01*
X012972Y006668D01*
X013032Y006650D01*
X013090Y006628D01*
X013147Y006602D01*
X013202Y006572D01*
X013255Y006539D01*
X013306Y006503D01*
X013354Y006464D01*
X013400Y006421D01*
X013443Y006376D01*
X013483Y006328D01*
X013520Y006278D01*
X013554Y006225D01*
X013585Y006171D01*
X013611Y006115D01*
X013635Y006057D01*
X013654Y005997D01*
X013670Y005937D01*
X013682Y005875D01*
X013690Y005814D01*
X013694Y005751D01*
X013694Y005689D01*
X013690Y005626D01*
X013682Y005565D01*
X013670Y005503D01*
X013654Y005443D01*
X013635Y005383D01*
X013611Y005325D01*
X013585Y005269D01*
X013554Y005215D01*
X013520Y005162D01*
X013483Y005112D01*
X013443Y005064D01*
X013400Y005019D01*
X013354Y004976D01*
X013306Y004937D01*
X013255Y004901D01*
X013202Y004868D01*
X013147Y004838D01*
X013090Y004812D01*
X013032Y004790D01*
X012972Y004772D01*
X012912Y004757D01*
X012850Y004746D01*
X012788Y004739D01*
X012726Y004736D01*
X012663Y004737D01*
X012601Y004742D01*
X012539Y004751D01*
X012478Y004764D01*
X012418Y004780D01*
X012359Y004801D01*
X012301Y004825D01*
X012245Y004853D01*
X012191Y004884D01*
X012139Y004918D01*
X012090Y004956D01*
X012042Y004997D01*
X011998Y005041D01*
X011956Y005087D01*
X011918Y005137D01*
X011882Y005188D01*
X011850Y005242D01*
X011822Y005297D01*
X011796Y005354D01*
X011775Y005413D01*
X011758Y005473D01*
X011744Y005534D01*
X011734Y005595D01*
X011728Y005658D01*
X011726Y005720D01*
D15*
X006580Y005725D02*
X006580Y005567D01*
X006030Y005505D02*
X006030Y003855D01*
X006580Y003793D02*
X006580Y003635D01*
X006580Y004567D02*
X006580Y004793D01*
X006030Y005505D02*
X006078Y005540D01*
X006128Y005573D01*
X006180Y005604D01*
X006234Y005631D01*
X006289Y005655D01*
X006346Y005675D01*
X006403Y005693D01*
X006461Y005707D01*
X006520Y005718D01*
X006580Y005725D01*
X007683Y004370D02*
X007663Y004310D01*
X007639Y004251D01*
X007611Y004194D01*
X007580Y004139D01*
X007545Y004085D01*
X007508Y004034D01*
X007467Y003985D01*
X007423Y003939D01*
X007377Y003895D01*
X007328Y003854D01*
X007277Y003816D01*
X007224Y003782D01*
X007168Y003750D01*
X007111Y003723D01*
X007052Y003698D01*
X006992Y003678D01*
X006931Y003660D01*
X006869Y003647D01*
X006806Y003638D01*
X006743Y003632D01*
X006679Y003630D01*
X006615Y003632D01*
X006552Y003638D01*
X006489Y003647D01*
X006427Y003661D01*
X006366Y003678D01*
X006306Y003699D01*
X006247Y003723D01*
X006190Y003751D01*
X006134Y003783D01*
X006081Y003818D01*
X006030Y003855D01*
X006580Y005725D02*
X006642Y005729D01*
X006705Y005730D01*
X006767Y005726D01*
X006829Y005719D01*
X006890Y005709D01*
X006951Y005694D01*
X007011Y005676D01*
X007070Y005655D01*
X007127Y005630D01*
X007182Y005602D01*
X007236Y005571D01*
X007288Y005536D01*
X007338Y005498D01*
X007385Y005458D01*
X007430Y005414D01*
X007473Y005369D01*
X007512Y005320D01*
X007549Y005270D01*
X007582Y005217D01*
X007613Y005163D01*
X007640Y005106D01*
X007663Y005049D01*
X007683Y004990D01*
X006720Y011955D02*
X006570Y011955D01*
X006495Y012030D01*
X006645Y012180D02*
X006720Y012180D01*
X006795Y012105D01*
X006795Y012030D01*
X006720Y011955D01*
X006720Y012180D02*
X006795Y012255D01*
X006795Y012330D01*
X006720Y012405D01*
X006570Y012405D01*
X006495Y012330D01*
X003645Y011955D02*
X003345Y011955D01*
X003495Y011955D02*
X003495Y012405D01*
X003345Y012255D01*
X009345Y012255D02*
X009495Y012405D01*
X009495Y011955D01*
X009345Y011955D02*
X009645Y011955D01*
X012495Y012030D02*
X012570Y011955D01*
X012720Y011955D01*
X012795Y012030D01*
X012795Y012105D01*
X012720Y012180D01*
X012645Y012180D01*
X012720Y012180D02*
X012795Y012255D01*
X012795Y012330D01*
X012720Y012405D01*
X012570Y012405D01*
X012495Y012330D01*
D16*
X009605Y007317D02*
X009291Y007004D01*
X009291Y007160D02*
X009605Y007160D01*
X009605Y007004D02*
X009291Y007317D01*
X009448Y007317D02*
X009448Y007004D01*
D17*
X009305Y008285D02*
X009305Y008477D01*
X009267Y008516D01*
X009190Y008516D01*
X009152Y008477D01*
X009152Y008285D01*
X009084Y008324D02*
X009046Y008285D01*
X008969Y008285D01*
X008931Y008324D01*
X008863Y008362D02*
X008786Y008285D01*
X008786Y008516D01*
X008710Y008516D02*
X008863Y008516D01*
X008931Y008477D02*
X008931Y008439D01*
X008969Y008400D01*
X009046Y008400D01*
X009084Y008362D01*
X009084Y008324D01*
X009007Y008247D02*
X009007Y008554D01*
X008969Y008516D02*
X009046Y008516D01*
X009084Y008477D01*
X008969Y008516D02*
X008931Y008477D01*
D18*
X009580Y012980D02*
X009980Y013380D01*
X003980Y013380D02*
X003580Y012980D01*
M02*
